<svg xmlns="http://www.w3.org/2000/svg" width="89.222" height="11.242" viewBox="0 0 89.222 11.242">
  <defs>
    <style>
      .cls-1 {
        fill: #fff;
      }
    </style>
  </defs>
  <path id="Alters_Media_Logo" data-name="Alters Media Logo" class="cls-1" d="M7.014-1.652H3.5L2.954,0H.056L3.682-9.87H6.86L10.472,0H7.56ZM6.328-3.724,5.264-6.944,4.186-3.724Zm7.714-6.636V0H11.284V-10.36Zm6.2,8.008V0H19.11a3.3,3.3,0,0,1-2.254-.714,3.01,3.01,0,0,1-.812-2.366V-5.558H15.036v-2.3h1.008v-1.9H18.8v1.9h1.414v2.3H18.8v2.534a.7.7,0,0,0,.161.518.767.767,0,0,0,.539.154ZM29.05-4.074a3.3,3.3,0,0,1-.07.644H23.786q.07,1.33,1.162,1.33a1.1,1.1,0,0,0,.672-.2.981.981,0,0,0,.364-.518H28.9a3.331,3.331,0,0,1-.686,1.491A3.681,3.681,0,0,1,26.866-.28,4.161,4.161,0,0,1,25.088.1a4.34,4.34,0,0,1-2.079-.483,3.417,3.417,0,0,1-1.407-1.4,4.392,4.392,0,0,1-.5-2.149,4.352,4.352,0,0,1,.5-2.142,3.417,3.417,0,0,1,1.414-1.393,4.351,4.351,0,0,1,2.072-.483,4.351,4.351,0,0,1,2.072.476,3.4,3.4,0,0,1,1.393,1.358A4.093,4.093,0,0,1,29.05-4.074Zm-2.8-.5a1.135,1.135,0,0,0-.322-.91,1.2,1.2,0,0,0-.84-.308,1.28,1.28,0,0,0-.889.308,1.336,1.336,0,0,0-.4.91Zm6.664-1.806A3.6,3.6,0,0,1,34.076-7.5a2.838,2.838,0,0,1,1.484-.42v2.94h-.8a2.247,2.247,0,0,0-1.386.357,1.476,1.476,0,0,0-.462,1.239V0H30.156V-7.854h2.758Zm6.538-1.568A3.8,3.8,0,0,1,41.93-7.2a3.3,3.3,0,0,1,1.162,2H40.516a1.013,1.013,0,0,0-.4-.63,1.253,1.253,0,0,0-.735-.21.72.72,0,0,0-.469.133.455.455,0,0,0-.161.371.475.475,0,0,0,.343.441,7.41,7.41,0,0,0,1.127.329,10.851,10.851,0,0,1,1.505.42,2.563,2.563,0,0,1,1.036.728A1.99,1.99,0,0,1,43.2-2.254a2.05,2.05,0,0,1-.378,1.218,2.473,2.473,0,0,1-1.1.833,4.4,4.4,0,0,1-1.7.3,4.378,4.378,0,0,1-2.632-.714A2.987,2.987,0,0,1,36.2-2.66H38.85a.862.862,0,0,0,.371.644,1.4,1.4,0,0,0,.791.21.748.748,0,0,0,.49-.14.452.452,0,0,0,.168-.364.513.513,0,0,0-.357-.49,6.1,6.1,0,0,0-1.141-.308,9.739,9.739,0,0,1-1.47-.4,2.506,2.506,0,0,1-1-.7,1.949,1.949,0,0,1-.427-1.337A2.135,2.135,0,0,1,37.1-7.28,3.639,3.639,0,0,1,39.452-7.952ZM58.142-9.73V0h-1.61V-7.294L53.718,0h-1.4L49.49-7.294V0h-1.6V-9.73h1.932l3.22,7.77L56.21-9.73Zm9.086,5.5a3.7,3.7,0,0,1-.056.686H61.236a2.426,2.426,0,0,0,.658,1.764A2.153,2.153,0,0,0,63.42-1.2a2.22,2.22,0,0,0,1.351-.406,1.676,1.676,0,0,0,.679-1.078h1.708a3.32,3.32,0,0,1-.644,1.442,3.329,3.329,0,0,1-1.274.987A4.175,4.175,0,0,1,63.49.1a4.027,4.027,0,0,1-1.981-.476A3.386,3.386,0,0,1,60.158-1.75a4.34,4.34,0,0,1-.49-2.114,4.31,4.31,0,0,1,.49-2.1,3.386,3.386,0,0,1,1.351-1.372,4.027,4.027,0,0,1,1.981-.476,4.024,4.024,0,0,1,1.981.469,3.263,3.263,0,0,1,1.3,1.288A3.7,3.7,0,0,1,67.228-4.228Zm-1.61-.042a2.372,2.372,0,0,0-.259-1.267,1.8,1.8,0,0,0-.784-.756,2.42,2.42,0,0,0-1.085-.245,2.241,2.241,0,0,0-1.568.574,2.345,2.345,0,0,0-.686,1.694ZM65.674-9.9,62.58-8.316v-1.12l3.094-1.708Zm6.188,2.086a3.052,3.052,0,0,1,1.792.518A2.709,2.709,0,0,1,74.69-5.922V-10.36H76.3V0H74.69V-1.792A2.709,2.709,0,0,1,73.654-.42,3.052,3.052,0,0,1,71.862.1a3.42,3.42,0,0,1-1.8-.476A3.253,3.253,0,0,1,68.824-1.75a4.674,4.674,0,0,1-.448-2.114,4.641,4.641,0,0,1,.448-2.1,3.253,3.253,0,0,1,1.239-1.372A3.42,3.42,0,0,1,71.862-7.812Zm.49,1.4a2.222,2.222,0,0,0-1.7.679,2.623,2.623,0,0,0-.637,1.869A2.623,2.623,0,0,0,70.651-2a2.222,2.222,0,0,0,1.7.679,2.318,2.318,0,0,0,1.2-.315,2.238,2.238,0,0,0,.84-.889A2.8,2.8,0,0,0,74.7-3.864,2.812,2.812,0,0,0,74.4-5.2a2.227,2.227,0,0,0-.84-.9A2.318,2.318,0,0,0,72.352-6.412Zm5.642-3.542a.887.887,0,0,1,.28-.672,1.033,1.033,0,0,1,.742-.266,1.058,1.058,0,0,1,.749.266.877.877,0,0,1,.287.672.834.834,0,0,1-.287.658,1.094,1.094,0,0,1-.749.252,1.067,1.067,0,0,1-.742-.252A.844.844,0,0,1,77.994-9.954Zm1.82,2.24V0h-1.6V-7.714Zm5.026-.1a3.052,3.052,0,0,1,1.792.518,2.788,2.788,0,0,1,1.05,1.372V-7.714h1.6V0h-1.6V-1.792A2.788,2.788,0,0,1,86.632-.42,3.052,3.052,0,0,1,84.84.1a3.42,3.42,0,0,1-1.8-.476A3.253,3.253,0,0,1,81.8-1.75a4.674,4.674,0,0,1-.448-2.114,4.641,4.641,0,0,1,.448-2.1,3.253,3.253,0,0,1,1.239-1.372A3.42,3.42,0,0,1,84.84-7.812Zm.49,1.4a2.222,2.222,0,0,0-1.7.679,2.623,2.623,0,0,0-.637,1.869A2.623,2.623,0,0,0,83.629-2a2.222,2.222,0,0,0,1.7.679,2.318,2.318,0,0,0,1.2-.315,2.238,2.238,0,0,0,.84-.889,2.8,2.8,0,0,0,.308-1.344A2.812,2.812,0,0,0,87.374-5.2a2.227,2.227,0,0,0-.84-.9A2.318,2.318,0,0,0,85.33-6.412Z" transform="translate(-0.056 11.144)"/>
</svg>
