<svg id="D360_Logo" data-name="D360 Logo" xmlns="http://www.w3.org/2000/svg" width="56.774" height="62.67" viewBox="0 0 56.774 62.67">
  <defs>
    <style>
      .cls-1 {
        fill: #fff;
      }
    </style>
  </defs>
  <rect id="Rectangle_36" data-name="Rectangle 36" class="cls-1" width="5.726" height="5.726" transform="translate(50.972 56.944)"/>
  <g id="Groupe_8" data-name="Groupe 8" transform="translate(0)">
    <g id="Groupe_7" data-name="Groupe 7" transform="translate(0 0)">
      <g id="Groupe_6" data-name="Groupe 6">
        <path id="Tracé_1" data-name="Tracé 1" class="cls-1" d="M549.4-1369.106a29.07,29.07,0,0,0-6.592-9.9,30.347,30.347,0,0,0-10.243-6.528,35.962,35.962,0,0,0-13.292-2.362h-24.3a0,0,0,0,0,0,0v62.565a0,0,0,0,0,0,0h24.3a36.24,36.24,0,0,0,13.292-2.34,29.9,29.9,0,0,0,10.243-6.528,29.3,29.3,0,0,0,6.592-9.921,32.812,32.812,0,0,0,2.341-12.519A32.7,32.7,0,0,0,549.4-1369.106Zm-13.721,20.893a17.9,17.9,0,0,1-3.457,6.335,15,15,0,0,1-5.519,3.994,18.733,18.733,0,0,1-7.43,1.4h-9.7a0,0,0,0,1,0,0v-7.049c.017.017.031.037.047.054a5.115,5.115,0,0,0,1.794,1.172,6.43,6.43,0,0,0,2.388.42,6.207,6.207,0,0,0,2.366-.436,5.561,5.561,0,0,0,1.826-1.183,5.23,5.23,0,0,0,.885-1.163,0,0,0,0,1,.006,0,6,6,0,0,0,.546.837,4.971,4.971,0,0,0,1.859,1.494,5.558,5.558,0,0,0,2.338.49,5.635,5.635,0,0,0,2.35-.49,5,5,0,0,0,1.876-1.494,7.41,7.41,0,0,0,1.237-2.529,12.931,12.931,0,0,0,.447-3.609,12.926,12.926,0,0,0-.447-3.609,7.414,7.414,0,0,0-1.237-2.53,4.945,4.945,0,0,0-1.876-1.488,5.693,5.693,0,0,0-2.35-.485,5.615,5.615,0,0,0-2.338.485,4.919,4.919,0,0,0-1.859,1.488,7.392,7.392,0,0,0-1.227,2.53,11.532,11.532,0,0,0-.4,2.37,0,0,0,0,1-.006,0,4.328,4.328,0,0,0-1.208-.635,5.288,5.288,0,0,0-1.7-.283,4.855,4.855,0,0,0-1.7.283l.415-.48,4.706-5.621a0,0,0,0,0,0-.005h-3a2.466,2.466,0,0,0-1.085.229,2.043,2.043,0,0,0-.725.545l-3.576,4.83c-.123.165-.237.33-.347.495l-.178.2a2.757,2.757,0,0,1-.741.709,4.567,4.567,0,0,1-1.009.485,3.545,3.545,0,0,1,2.639,3.6,4.968,4.968,0,0,1-.458,2.2,4.523,4.523,0,0,1-1.227,1.559,5.241,5.241,0,0,1-1.783.932,7.17,7.17,0,0,1-2.115.311,7.548,7.548,0,0,1-2.017-.245,4.642,4.642,0,0,1-1.57-.763,5.044,5.044,0,0,1-1.2-1.325,8.864,8.864,0,0,1-.9-1.916,0,0,0,0,1,0,0l1.5-.61a1.882,1.882,0,0,1,1.091-.12,1.023,1.023,0,0,1,.719.5,3.954,3.954,0,0,0,1.042,1.313,2.1,2.1,0,0,0,1.292.409,2.363,2.363,0,0,0,.987-.191,2.145,2.145,0,0,0,.7-.491,2.028,2.028,0,0,0,.42-.681,2.213,2.213,0,0,0,.142-.774,5.411,5.411,0,0,0-.071-.921,1.2,1.2,0,0,0-.4-.7,2.25,2.25,0,0,0-.987-.453,8.318,8.318,0,0,0-1.834-.158,0,0,0,0,1,0,0v-2.327a0,0,0,0,1,0,0,6.829,6.829,0,0,0,1.6-.153,2.452,2.452,0,0,0,.943-.42,1.265,1.265,0,0,0,.441-.649,3.047,3.047,0,0,0,.109-.84,2.1,2.1,0,0,0-.452-1.444,1.756,1.756,0,0,0-1.379-.507,2.022,2.022,0,0,0-1.27.4,2.038,2.038,0,0,0-.714.987,1.421,1.421,0,0,1-.6.8,1.717,1.717,0,0,1-1.058.087l-1.785-.316a0,0,0,0,1,0,0,5.947,5.947,0,0,1,.67-2.068,4.989,4.989,0,0,1,1.232-1.472,5,5,0,0,1,1.685-.877,6.961,6.961,0,0,1,2.039-.289,6.117,6.117,0,0,1,2.093.333,4.679,4.679,0,0,1,1.548.9l.842.757a.011.011,0,0,0,.018-.008v-20.616a0,0,0,0,1,0,0h9.7a18.742,18.742,0,0,1,7.43,1.4,15.021,15.021,0,0,1,5.519,3.994,17.9,17.9,0,0,1,3.457,6.334,27.272,27.272,0,0,1,1.2,8.374A27.42,27.42,0,0,1,535.678-1348.214Zm-24.324,1.085a3.01,3.01,0,0,1,.175-1.058,2.419,2.419,0,0,1,.485-.807,2.1,2.1,0,0,1,.736-.518,2.383,2.383,0,0,1,.938-.18,2.911,2.911,0,0,1,1.03.175,2.193,2.193,0,0,1,.791.5,2.232,2.232,0,0,1,.507.807,3.088,3.088,0,0,1,.18,1.09,2.623,2.623,0,0,1-.191,1.008,2.576,2.576,0,0,1-.518.807,2.353,2.353,0,0,1-.78.54,2.427,2.427,0,0,1-.976.2,2.823,2.823,0,0,1-1.058-.18,1.917,1.917,0,0,1-.741-.518,2.162,2.162,0,0,1-.436-.807A3.645,3.645,0,0,1,511.354-1347.128Zm9.892-2.85a14.77,14.77,0,0,1,.2-2.7,5.669,5.669,0,0,1,.535-1.652,1.94,1.94,0,0,1,.763-.823,1.884,1.884,0,0,1,.878-.224,1.916,1.916,0,0,1,.883.224,2,2,0,0,1,.78.823,5.537,5.537,0,0,1,.55,1.652,14.381,14.381,0,0,1,.207,2.7,14.364,14.364,0,0,1-.207,2.7,5.608,5.608,0,0,1-.55,1.652,1.992,1.992,0,0,1-.78.828,1.916,1.916,0,0,1-.883.224,1.884,1.884,0,0,1-.878-.224,1.937,1.937,0,0,1-.763-.828,5.741,5.741,0,0,1-.535-1.652A14.751,14.751,0,0,1,521.246-1349.979Z" transform="translate(-494.966 1387.895)"/>
      </g>
    </g>
  </g>
</svg>
