<svg xmlns="http://www.w3.org/2000/svg" width="17.343" height="11.996" viewBox="0 0 17.343 11.996">
  <defs>
    <style>
      .cls-1 {
        fill: #fff;
      }
    </style>
  </defs>
  <g id="Newsletter_Icon" data-name="Newsletter Icon" transform="translate(-2285.781 43.26)">
    <g id="Groupe_122" data-name="Groupe 122" transform="translate(2285.781 -43.26)">
      <path id="Tracé_117" data-name="Tracé 117" class="cls-1" d="M2285.851-27.373q3.5,3.237,6.965,6.449a2.11,2.11,0,0,0,3.24.012l6.741-6.223c.082-.075.165-.149.246-.221.121.054.072.155.072.232q0,4.55,0,9.1a1.329,1.329,0,0,1-1.441,1.452q-7.228.011-14.455,0a1.325,1.325,0,0,1-1.434-1.459q-.005-4.531,0-9.062A.317.317,0,0,1,2285.851-27.373Z" transform="translate(-2285.781 28.563)"/>
      <path id="Tracé_118" data-name="Tracé 118" class="cls-1" d="M2296.476-43.26h15.612c.066.154-.042.191-.1.243q-3.518,3.254-7.041,6.5c-.5.46-.737.458-1.243-.01q-3.519-3.254-7.032-6.514C2296.631-43.076,2296.6-43.124,2296.476-43.26Z" transform="translate(-2295.675 43.26)"/>
    </g>
  </g>
</svg>
