<svg id="Write_Logo" data-name="Write Logo" xmlns="http://www.w3.org/2000/svg" width="15.437" height="19.836" viewBox="0 0 15.437 19.836">
  <defs>
    <style>
      .cls-1 {
        fill: #fff;
      }
    </style>
  </defs>
  <path id="Tracé_4" data-name="Tracé 4" class="cls-1" d="M6345.618,5241.417q0-4.259,0-8.518a1.215,1.215,0,0,1,1.375-1.379q4.117,0,8.233,0a.682.682,0,0,1,.529.223q2.539,2.552,5.091,5.091a.648.648,0,0,1,.207.5q-.008,6.344,0,12.689a1.181,1.181,0,0,1-1.338,1.332q-6.4,0-12.8,0a1.179,1.179,0,0,1-1.3-1.307Q6345.616,5245.73,6345.618,5241.417Zm7.729.018c1.364,0,2.729,0,4.094,0,.224,0,.316-.046.3-.29-.021-.355-.014-.712,0-1.067.007-.2-.032-.295-.269-.294q-4.129.012-8.26,0c-.223,0-.29.07-.28.283a8.275,8.275,0,0,1,0,1c-.023.287.049.379.359.375C6350.641,5241.424,6351.994,5241.435,6353.347,5241.435Zm0,1.664c-1.366,0-2.733.006-4.1,0-.249,0-.333.061-.318.316.023.368.012.737,0,1.105,0,.178.044.245.239.244q4.17-.01,8.341,0c.171,0,.229-.05.226-.22-.009-.368-.019-.737,0-1.1.016-.263-.06-.344-.333-.341C6356.055,5243.107,6354.7,5243.1,6353.346,5243.1Zm0,4.951c1.365,0,2.73-.005,4.094.005.226,0,.313-.05.3-.291-.021-.354-.015-.712,0-1.067.007-.2-.029-.293-.267-.292q-4.148.012-8.3,0c-.185,0-.253.049-.247.239a8.919,8.919,0,0,1,0,1c-.023.311.053.423.4.417C6350.667,5248.037,6352.009,5248.05,6353.349,5248.05Zm6.066-11.093c-1.226-1.224-2.434-2.431-3.645-3.636-.051-.051-.091-.166-.193-.1-.084.051-.046.151-.047.231,0,1.092.009,2.185,0,3.278,0,.249.06.325.316.321,1.1-.013,2.208,0,3.314,0A.313.313,0,0,0,6359.415,5236.957Z" transform="translate(-6345.617 -5231.516)"/>
</svg>
